<mxfile host="Electron" agent="Mozilla/5.0 (X11; Linux x86_64) AppleWebKit/537.36 (KHTML, like Gecko) draw.io/24.7.17 Chrome/128.0.6613.36 Electron/32.0.1 Safari/537.36" version="24.7.17">
  <diagram id="C5RBs43oDa-KdzZeNtuy" name="Page-1">
    <mxGraphModel dx="1156" dy="203" grid="1" gridSize="10" guides="1" tooltips="1" connect="1" arrows="1" fold="1" page="1" pageScale="1" pageWidth="827" pageHeight="1169" math="0" shadow="0">
      <root>
        <mxCell id="WIyWlLk6GJQsqaUBKTNV-0" />
        <mxCell id="WIyWlLk6GJQsqaUBKTNV-1" parent="WIyWlLk6GJQsqaUBKTNV-0" />
        <mxCell id="rQnEvrApPPzfNtwEVzKc-2" value="" style="edgeStyle=orthogonalEdgeStyle;rounded=0;orthogonalLoop=1;jettySize=auto;html=1;fontFamily=Helvetica;endArrow=none;endFill=0;" parent="WIyWlLk6GJQsqaUBKTNV-1" source="rQnEvrApPPzfNtwEVzKc-0" target="rQnEvrApPPzfNtwEVzKc-1" edge="1">
          <mxGeometry relative="1" as="geometry" />
        </mxCell>
        <mxCell id="rQnEvrApPPzfNtwEVzKc-0" value="&lt;p style=&quot;line-height: 1 ; font-size: 10px&quot;&gt;Начало&lt;/p&gt;" style="shape=stencil(vZXxboMgEMafhj9dUNwDLG57j9NelRTBIKv27YegWdHq1s3OmJD7Dn/3nZyRsKytoEGSUAk1EvZKkiTHkku7WrHySkp92PkwnmJoGyyMF8+gOeQCfaY1Wp2w4wczIrisUHMzZNkboS92z3CzrFBSWghXsg0yV3kLAy7ts7T3sLH8JYgay6/RoB5NepUk7z/HPj0/Bhw/yG+Indzv7nc/cOg4ftTB7QaOf49lmVXWhptlORSnUqsPebhp5siFKJRQ2oZ+dbVIwuh4bTfTwPDhLRJTulZn/OpydizpJntCgC5WCWOkZ1l9CWMBusTIgqKjgDJ4m22H2CzlPoKet5FWBoaXGlTbtiu4vOo4vm34jo7nhPQPPdN/6fmuU3bTuxgip65Mrp1ZpfGbkfa/hY2qqxtc6UUFp/o/mBM+AQ==);whiteSpace=wrap;html=1;aspect=fixed;fontFamily=Helvetica;fontSize=10;spacingBottom=4;" parent="WIyWlLk6GJQsqaUBKTNV-1" vertex="1">
          <mxGeometry x="80" y="40" width="140" height="40" as="geometry" />
        </mxCell>
        <mxCell id="rQnEvrApPPzfNtwEVzKc-1" value="&lt;p style=&quot;line-height: 1;&quot;&gt;Буфер кадра (buffer)&lt;br&gt;Z - буфер (z_buffer)&lt;br&gt;Треугольник для отрисовки&lt;br&gt;Цвет треугольника (color)&lt;/p&gt;" style="shape=stencil(tZRtboQgEIZPw99GYXuAxrb3mMXZShbBAN1tb78jaLvWjzZWjQmZd/CZF0ZgovAVNMh4ZqBGJp4Z5yUEoIG0KgmHLIXXFOZ9DL5BGZJ4AafgqDFlfHD2jFdVhg6hTIVOhTYrXlj2RHPaVxTSGkMQZY0fZO7yBANl6NvsI8G68p+DqCF+jQFdZzKpjL/+HfvwuA8438nvENu739zvduCh43yvxm0GztdjRUHK3M8tiiPI85uz76acNHNSWkurraMwjbEW4yLrnuXFNNAevFGiT9f2gt+rnD5P0+ieoJW5I3zdCP9A/HBxWMFYQ5DaelzYSdJHmxnVmQ5S76zDX1qbrseFqrMTYulRhaimizwKNw==);whiteSpace=wrap;html=1;aspect=fixed;fontFamily=Helvetica;fontSize=10;spacingBottom=4;" parent="WIyWlLk6GJQsqaUBKTNV-1" vertex="1">
          <mxGeometry x="66.25" y="100" width="168" height="48" as="geometry" />
        </mxCell>
        <mxCell id="iKR6BXr1hHKQpsy8EKb4-1" value="" style="edgeStyle=orthogonalEdgeStyle;rounded=0;orthogonalLoop=1;jettySize=auto;html=1;endArrow=none;endFill=0;fontFamily=Helvetica;exitX=0.5;exitY=1;exitDx=0;exitDy=0;" parent="WIyWlLk6GJQsqaUBKTNV-1" source="rQnEvrApPPzfNtwEVzKc-1" target="iKR6BXr1hHKQpsy8EKb4-0" edge="1">
          <mxGeometry relative="1" as="geometry">
            <mxPoint x="150" y="290" as="sourcePoint" />
          </mxGeometry>
        </mxCell>
        <mxCell id="iKR6BXr1hHKQpsy8EKb4-3" value="" style="edgeStyle=orthogonalEdgeStyle;rounded=0;orthogonalLoop=1;jettySize=auto;html=1;endArrow=none;endFill=0;fontFamily=Helvetica;" parent="WIyWlLk6GJQsqaUBKTNV-1" source="iKR6BXr1hHKQpsy8EKb4-0" target="iKR6BXr1hHKQpsy8EKb4-2" edge="1">
          <mxGeometry relative="1" as="geometry" />
        </mxCell>
        <mxCell id="iKR6BXr1hHKQpsy8EKb4-0" value="&lt;p style=&quot;line-height: 1&quot;&gt;Упорядочить векторы соответствубющие вершинам треугольника (t0, t1, t2) по возрастанию y-координаты (в t1 - минимальная, в t2 - максимальная)&lt;/p&gt;" style="shape=stencil(tVTRboMwDPyavFYh2T5gYtt/pKlXotIkcrJ1/fuaGKQiBq0mQEjgu3B3Bhyh69SYCEJJb84g9LtQKmKwkBLdEdww9iK5vHBZDbVJEWxm8MegM/sWmEkZwwku7pB7CecbQJc7Vn8I+UZrulPXNnhPIi74NGLueBIzztOz8pfFevvrqIqkf4YM2IdkVKjP52V3r9sIVxvlHcsO6VfPu57wOHG11YdbTbj6v6yuCZn7uXW9N/Z0xPDtD3+G+XJta0MbkEq+Fi+htOyP5Wai6QZvQgw0dmO7PE4PRn/OmPCJd0FnGqZWA8KDN8G7yYLr7IJiPXEoKG99BbgB);whiteSpace=wrap;html=1;aspect=fixed;fontFamily=Helvetica;fontSize=10;spacingBottom=4;" parent="WIyWlLk6GJQsqaUBKTNV-1" vertex="1">
          <mxGeometry x="63" y="173.14" width="174.5" height="49.86" as="geometry" />
        </mxCell>
        <mxCell id="iKR6BXr1hHKQpsy8EKb4-5" value="" style="edgeStyle=orthogonalEdgeStyle;rounded=0;orthogonalLoop=1;jettySize=auto;html=1;endArrow=none;endFill=0;fontFamily=Helvetica;" parent="WIyWlLk6GJQsqaUBKTNV-1" source="iKR6BXr1hHKQpsy8EKb4-2" target="iKR6BXr1hHKQpsy8EKb4-4" edge="1">
          <mxGeometry relative="1" as="geometry" />
        </mxCell>
        <mxCell id="iKR6BXr1hHKQpsy8EKb4-2" value="&lt;p style=&quot;line-height: 1&quot;&gt;total_height = t2.y - t0.y&lt;/p&gt;" style="shape=stencil(tVTRboMwDPyavFYh2T5gYtt/pKlXotIkcrJ1/fuaGKQiBq0mQEjgu3B3Bhyh69SYCEJJb84g9LtQKmKwkBLdEdww9iK5vHBZDbVJEWxm8MegM/sWmEkZwwku7pB7CecbQJc7Vn8I+UZrulPXNnhPIi74NGLueBIzztOz8pfFevvrqIqkf4YM2IdkVKjP52V3r9sIVxvlHcsO6VfPu57wOHG11YdbTbj6v6yuCZn7uXW9N/Z0xPDtD3+G+XJta0MbkEq+Fi+htOyP5Wai6QZvQgw0dmO7PE4PRn/OmPCJd0FnGqZWA8KDN8G7yYLr7IJiPXEoKG99BbgB);whiteSpace=wrap;html=1;aspect=fixed;fontFamily=Helvetica;fontSize=10;spacingBottom=4;" parent="WIyWlLk6GJQsqaUBKTNV-1" vertex="1">
          <mxGeometry x="80" y="245" width="140" height="40" as="geometry" />
        </mxCell>
        <mxCell id="iKR6BXr1hHKQpsy8EKb4-8" value="" style="edgeStyle=orthogonalEdgeStyle;rounded=0;orthogonalLoop=1;jettySize=auto;html=1;endArrow=none;endFill=0;fontFamily=Helvetica;" parent="WIyWlLk6GJQsqaUBKTNV-1" source="iKR6BXr1hHKQpsy8EKb4-4" target="iKR6BXr1hHKQpsy8EKb4-7" edge="1">
          <mxGeometry relative="1" as="geometry" />
        </mxCell>
        <mxCell id="iKR6BXr1hHKQpsy8EKb4-4" value="&lt;p style=&quot;line-height: 1&quot;&gt;Цикл по i от&amp;nbsp; 0 до total_hieght&lt;/p&gt;" style="strokeWidth=1;html=1;shape=stencil(rVXBUoMwFPyaXJmQ1EOPivXoxYPnlD5LpiEvE7C1f2/gwQgCbU1lmIG3C7t5ZBOYzKpCOWCCW1UCk89MCIPonmCvbbgPREHoilN5ojLta1U5yGsCj8prtTVATFV7PMBJ7+pOQtsCvK4bVm4YfwzPNKfMcrQ2iGi01YgZ8EFMaRve5V8kxpMHsjl3NVUuOJRQgx+hP829EsDES7RTepvTW4TTuKPe95rT+9+d0jinTczX478mKknXN85VRGM8WUfbLXQns4AsRVRmW5Uf9h4/7W52kB/amBwN+lDStTVjQvLuuNykU83ymRA9XeIRBtM6uybmpXsFo+1QQdwv0W8N5/Gg7tFYRYzjvxWi+oj4mrnBCi4kIuCTULToQhJDBtHDlYjSZr2U/olAi9KvowW+AQ==);whiteSpace=wrap;fontSize=10;fontFamily=Helvetica;spacingLeft=10;spacingRight=10;spacingBottom=4;aspect=fixed;" parent="WIyWlLk6GJQsqaUBKTNV-1" vertex="1">
          <mxGeometry x="80" y="312" width="140" height="40" as="geometry" />
        </mxCell>
        <mxCell id="iKR6BXr1hHKQpsy8EKb4-10" value="" style="edgeStyle=orthogonalEdgeStyle;rounded=0;orthogonalLoop=1;jettySize=auto;html=1;endArrow=none;endFill=0;fontFamily=Helvetica;" parent="WIyWlLk6GJQsqaUBKTNV-1" source="iKR6BXr1hHKQpsy8EKb4-7" target="iKR6BXr1hHKQpsy8EKb4-9" edge="1">
          <mxGeometry relative="1" as="geometry" />
        </mxCell>
        <mxCell id="iKR6BXr1hHKQpsy8EKb4-7" value="&lt;p style=&quot;line-height: 1&quot;&gt;second_half = (i &amp;gt; t1.y-t0.y или&lt;br&gt;t1.y == t0.y)&lt;/p&gt;" style="shape=stencil(tVTRboMwDPyavFYh2T5gYtt/pKlXotIkcrJ1/fuaGKQiBq0mQEjgu3B3Bhyh69SYCEJJb84g9LtQKmKwkBLdEdww9iK5vHBZDbVJEWxm8MegM/sWmEkZwwku7pB7CecbQJc7Vn8I+UZrulPXNnhPIi74NGLueBIzztOz8pfFevvrqIqkf4YM2IdkVKjP52V3r9sIVxvlHcsO6VfPu57wOHG11YdbTbj6v6yuCZn7uXW9N/Z0xPDtD3+G+XJta0MbkEq+Fi+htOyP5Wai6QZvQgw0dmO7PE4PRn/OmPCJd0FnGqZWA8KDN8G7yYLr7IJiPXEoKG99BbgB);whiteSpace=wrap;html=1;aspect=fixed;fontFamily=Helvetica;fontSize=10;spacingBottom=4;" parent="WIyWlLk6GJQsqaUBKTNV-1" vertex="1">
          <mxGeometry x="80" y="375" width="140" height="40" as="geometry" />
        </mxCell>
        <mxCell id="iKR6BXr1hHKQpsy8EKb4-13" value="" style="edgeStyle=orthogonalEdgeStyle;rounded=0;orthogonalLoop=1;jettySize=auto;html=1;exitX=0;exitY=0.5;exitDx=0;exitDy=0;fontFamily=Helvetica;" parent="WIyWlLk6GJQsqaUBKTNV-1" source="iKR6BXr1hHKQpsy8EKb4-9" target="iKR6BXr1hHKQpsy8EKb4-12" edge="1">
          <mxGeometry relative="1" as="geometry" />
        </mxCell>
        <mxCell id="iKR6BXr1hHKQpsy8EKb4-14" value="" style="edgeStyle=orthogonalEdgeStyle;rounded=0;orthogonalLoop=1;jettySize=auto;html=1;exitX=1;exitY=0.5;exitDx=0;exitDy=0;endArrow=none;endFill=0;fontFamily=Helvetica;" parent="WIyWlLk6GJQsqaUBKTNV-1" source="iKR6BXr1hHKQpsy8EKb4-9" target="iKR6BXr1hHKQpsy8EKb4-11" edge="1">
          <mxGeometry relative="1" as="geometry" />
        </mxCell>
        <mxCell id="iKR6BXr1hHKQpsy8EKb4-9" value="&lt;p style=&quot;line-height: 1&quot;&gt;second_half = true&lt;/p&gt;" style="shape=stencil(tZTdboQgEIWfhtsGYZu9bmz7HixOK1kEA3S3ffsdAdu1/rQxakx0zuA3B0YgvPS1aIEwakQDhD8TxiqQyitr8BX1OokHmsJrCos+Fr4FGZJ4EU6Jk4aU8cHZM1xVFTJCmRqcCl2WvxD6hGO6m5fSGoMQLOkHmbs8woQy+C39TLBc/msQtchvIIDLJpNK2Ov/sQ+P+4CLnfwOsb37zf1uBx46LvZq3GbgYj2Wl6jM/dy8PAl5fnf2w1STZt6U1tJq6zBMz1iLME7ztTyZVnQbb5To0429wM8sj5P7aRrdE7Qyd4TvEyEj1jB+uTisQKwxIbX1sLCSqI8WM6ozHcTeWQd/tDYdjwtVZwfE0qMKUU2HeRRu);whiteSpace=wrap;html=1;aspect=fixed;fontFamily=Helvetica;fontSize=10;spacingBottom=4;rounded=0;shadow=0;sketch=0;spacingLeft=20;spacingRight=20;" parent="WIyWlLk6GJQsqaUBKTNV-1" vertex="1">
          <mxGeometry x="80" y="436" width="140" height="40" as="geometry" />
        </mxCell>
        <mxCell id="iKR6BXr1hHKQpsy8EKb4-17" value="" style="edgeStyle=orthogonalEdgeStyle;rounded=0;orthogonalLoop=1;jettySize=auto;html=1;endArrow=none;endFill=0;fontFamily=Helvetica;" parent="WIyWlLk6GJQsqaUBKTNV-1" source="iKR6BXr1hHKQpsy8EKb4-11" target="iKR6BXr1hHKQpsy8EKb4-15" edge="1">
          <mxGeometry relative="1" as="geometry">
            <Array as="points">
              <mxPoint x="240" y="532" />
              <mxPoint x="150" y="532" />
            </Array>
          </mxGeometry>
        </mxCell>
        <mxCell id="iKR6BXr1hHKQpsy8EKb4-11" value="&lt;p style=&quot;line-height: 1&quot;&gt;segment_height = t2.y - t1.y&lt;/p&gt;" style="shape=stencil(tVTRboMwDPyavFYh2T5gYtt/pKlXotIkcrJ1/fuaGKQiBq0mQEjgu3B3Bhyh69SYCEJJb84g9LtQKmKwkBLdEdww9iK5vHBZDbVJEWxm8MegM/sWmEkZwwku7pB7CecbQJc7Vn8I+UZrulPXNnhPIi74NGLueBIzztOz8pfFevvrqIqkf4YM2IdkVKjP52V3r9sIVxvlHcsO6VfPu57wOHG11YdbTbj6v6yuCZn7uXW9N/Z0xPDtD3+G+XJta0MbkEq+Fi+htOyP5Wai6QZvQgw0dmO7PE4PRn/OmPCJd0FnGqZWA8KDN8G7yYLr7IJiPXEoKG99BbgB);whiteSpace=wrap;html=1;aspect=fixed;fontFamily=Helvetica;fontSize=10;spacingBottom=4;" parent="WIyWlLk6GJQsqaUBKTNV-1" vertex="1">
          <mxGeometry x="170" y="482" width="140" height="40" as="geometry" />
        </mxCell>
        <mxCell id="iKR6BXr1hHKQpsy8EKb4-16" value="" style="edgeStyle=orthogonalEdgeStyle;rounded=0;orthogonalLoop=1;jettySize=auto;html=1;fontFamily=Helvetica;" parent="WIyWlLk6GJQsqaUBKTNV-1" source="iKR6BXr1hHKQpsy8EKb4-12" edge="1">
          <mxGeometry relative="1" as="geometry">
            <mxPoint x="150" y="542" as="targetPoint" />
            <Array as="points">
              <mxPoint x="60" y="542" />
              <mxPoint x="150" y="542" />
            </Array>
          </mxGeometry>
        </mxCell>
        <mxCell id="iKR6BXr1hHKQpsy8EKb4-12" value="&lt;p style=&quot;line-height: 1&quot;&gt;segment_height = t1.y - t0.y&lt;/p&gt;" style="shape=stencil(tVTRboMwDPyavFYh2T5gYtt/pKlXotIkcrJ1/fuaGKQiBq0mQEjgu3B3Bhyh69SYCEJJb84g9LtQKmKwkBLdEdww9iK5vHBZDbVJEWxm8MegM/sWmEkZwwku7pB7CecbQJc7Vn8I+UZrulPXNnhPIi74NGLueBIzztOz8pfFevvrqIqkf4YM2IdkVKjP52V3r9sIVxvlHcsO6VfPu57wOHG11YdbTbj6v6yuCZn7uXW9N/Z0xPDtD3+G+XJta0MbkEq+Fi+htOyP5Wai6QZvQgw0dmO7PE4PRn/OmPCJd0FnGqZWA8KDN8G7yYLr7IJiPXEoKG99BbgB);whiteSpace=wrap;html=1;aspect=fixed;fontFamily=Helvetica;fontSize=10;spacingBottom=4;" parent="WIyWlLk6GJQsqaUBKTNV-1" vertex="1">
          <mxGeometry x="-10" y="482" width="140" height="40" as="geometry" />
        </mxCell>
        <mxCell id="iKR6BXr1hHKQpsy8EKb4-20" value="" style="edgeStyle=orthogonalEdgeStyle;rounded=0;orthogonalLoop=1;jettySize=auto;html=1;endArrow=none;endFill=0;fontFamily=Helvetica;" parent="WIyWlLk6GJQsqaUBKTNV-1" source="iKR6BXr1hHKQpsy8EKb4-15" target="iKR6BXr1hHKQpsy8EKb4-19" edge="1">
          <mxGeometry relative="1" as="geometry" />
        </mxCell>
        <mxCell id="iKR6BXr1hHKQpsy8EKb4-15" value="&lt;p style=&quot;line-height: 1&quot;&gt;alpha = i / total_height&lt;/p&gt;" style="shape=stencil(tVTRboMwDPyavFYh2T5gYtt/pKlXotIkcrJ1/fuaGKQiBq0mQEjgu3B3Bhyh69SYCEJJb84g9LtQKmKwkBLdEdww9iK5vHBZDbVJEWxm8MegM/sWmEkZwwku7pB7CecbQJc7Vn8I+UZrulPXNnhPIi74NGLueBIzztOz8pfFevvrqIqkf4YM2IdkVKjP52V3r9sIVxvlHcsO6VfPu57wOHG11YdbTbj6v6yuCZn7uXW9N/Z0xPDtD3+G+XJta0MbkEq+Fi+htOyP5Wai6QZvQgw0dmO7PE4PRn/OmPCJd0FnGqZWA8KDN8G7yYLr7IJiPXEoKG99BbgB);whiteSpace=wrap;html=1;aspect=fixed;fontFamily=Helvetica;fontSize=10;spacingBottom=4;" parent="WIyWlLk6GJQsqaUBKTNV-1" vertex="1">
          <mxGeometry x="80" y="552" width="140" height="40" as="geometry" />
        </mxCell>
        <mxCell id="iKR6BXr1hHKQpsy8EKb4-23" value="" style="edgeStyle=orthogonalEdgeStyle;rounded=0;orthogonalLoop=1;jettySize=auto;html=1;exitX=0;exitY=0.5;exitDx=0;exitDy=0;endArrow=classic;endFill=1;fontFamily=Helvetica;" parent="WIyWlLk6GJQsqaUBKTNV-1" source="iKR6BXr1hHKQpsy8EKb4-19" target="iKR6BXr1hHKQpsy8EKb4-22" edge="1">
          <mxGeometry relative="1" as="geometry" />
        </mxCell>
        <mxCell id="iKR6BXr1hHKQpsy8EKb4-24" value="" style="edgeStyle=orthogonalEdgeStyle;rounded=0;orthogonalLoop=1;jettySize=auto;html=1;exitX=1;exitY=0.5;exitDx=0;exitDy=0;endArrow=none;endFill=0;fontFamily=Helvetica;" parent="WIyWlLk6GJQsqaUBKTNV-1" source="iKR6BXr1hHKQpsy8EKb4-19" target="iKR6BXr1hHKQpsy8EKb4-21" edge="1">
          <mxGeometry relative="1" as="geometry" />
        </mxCell>
        <mxCell id="iKR6BXr1hHKQpsy8EKb4-19" value="&lt;p style=&quot;line-height: 1&quot;&gt;second_half = true?&lt;/p&gt;" style="shape=stencil(tZTdboQgEIWfhtsGYZu9bmz7HixOK1kEA3S3ffsdAdu1/rQxakx0zuA3B0YgvPS1aIEwakQDhD8TxiqQyitr8BX1OokHmsJrCos+Fr4FGZJ4EU6Jk4aU8cHZM1xVFTJCmRqcCl2WvxD6hGO6m5fSGoMQLOkHmbs8woQy+C39TLBc/msQtchvIIDLJpNK2Ov/sQ+P+4CLnfwOsb37zf1uBx46LvZq3GbgYj2Wl6jM/dy8PAl5fnf2w1STZt6U1tJq6zBMz1iLME7ztTyZVnQbb5To0429wM8sj5P7aRrdE7Qyd4TvEyEj1jB+uTisQKwxIbX1sLCSqI8WM6ozHcTeWQd/tDYdjwtVZwfE0qMKUU2HeRRu);whiteSpace=wrap;html=1;aspect=fixed;fontFamily=Helvetica;fontSize=10;spacingBottom=4;rounded=0;shadow=0;sketch=0;spacingLeft=20;spacingRight=20;" parent="WIyWlLk6GJQsqaUBKTNV-1" vertex="1">
          <mxGeometry x="80" y="620" width="140" height="40" as="geometry" />
        </mxCell>
        <mxCell id="iKR6BXr1hHKQpsy8EKb4-29" value="" style="edgeStyle=orthogonalEdgeStyle;rounded=0;orthogonalLoop=1;jettySize=auto;html=1;endArrow=none;endFill=0;fontFamily=Helvetica;" parent="WIyWlLk6GJQsqaUBKTNV-1" source="iKR6BXr1hHKQpsy8EKb4-21" target="iKR6BXr1hHKQpsy8EKb4-28" edge="1">
          <mxGeometry relative="1" as="geometry">
            <Array as="points">
              <mxPoint x="240" y="720" />
              <mxPoint x="150" y="720" />
            </Array>
          </mxGeometry>
        </mxCell>
        <mxCell id="iKR6BXr1hHKQpsy8EKb4-21" value="beta = (i - (t1.y - t0.y))/segment_height" style="shape=stencil(tVTRboMwDPyavFYh2T5gYtt/pKlXotIkcrJ1/fuaGKQiBq0mQEjgu3B3Bhyh69SYCEJJb84g9LtQKmKwkBLdEdww9iK5vHBZDbVJEWxm8MegM/sWmEkZwwku7pB7CecbQJc7Vn8I+UZrulPXNnhPIi74NGLueBIzztOz8pfFevvrqIqkf4YM2IdkVKjP52V3r9sIVxvlHcsO6VfPu57wOHG11YdbTbj6v6yuCZn7uXW9N/Z0xPDtD3+G+XJta0MbkEq+Fi+htOyP5Wai6QZvQgw0dmO7PE4PRn/OmPCJd0FnGqZWA8KDN8G7yYLr7IJiPXEoKG99BbgB);whiteSpace=wrap;html=1;aspect=fixed;fontFamily=Helvetica;fontSize=10;spacingBottom=4;fillColor=none;" parent="WIyWlLk6GJQsqaUBKTNV-1" vertex="1">
          <mxGeometry x="170" y="670" width="140" height="40" as="geometry" />
        </mxCell>
        <mxCell id="iKR6BXr1hHKQpsy8EKb4-30" value="" style="edgeStyle=orthogonalEdgeStyle;rounded=0;orthogonalLoop=1;jettySize=auto;html=1;exitX=0.5;exitY=1;exitDx=0;exitDy=0;fontFamily=Helvetica;" parent="WIyWlLk6GJQsqaUBKTNV-1" source="iKR6BXr1hHKQpsy8EKb4-22" edge="1">
          <mxGeometry relative="1" as="geometry">
            <mxPoint x="150" y="730" as="targetPoint" />
            <Array as="points">
              <mxPoint x="60" y="730" />
            </Array>
          </mxGeometry>
        </mxCell>
        <mxCell id="iKR6BXr1hHKQpsy8EKb4-22" value="&lt;p style=&quot;line-height: 1&quot;&gt;beta = i/segment_height&lt;/p&gt;" style="shape=stencil(tVTRboMwDPyavFYh2T5gYtt/pKlXotIkcrJ1/fuaGKQiBq0mQEjgu3B3Bhyh69SYCEJJb84g9LtQKmKwkBLdEdww9iK5vHBZDbVJEWxm8MegM/sWmEkZwwku7pB7CecbQJc7Vn8I+UZrulPXNnhPIi74NGLueBIzztOz8pfFevvrqIqkf4YM2IdkVKjP52V3r9sIVxvlHcsO6VfPu57wOHG11YdbTbj6v6yuCZn7uXW9N/Z0xPDtD3+G+XJta0MbkEq+Fi+htOyP5Wai6QZvQgw0dmO7PE4PRn/OmPCJd0FnGqZWA8KDN8G7yYLr7IJiPXEoKG99BbgB);whiteSpace=wrap;html=1;aspect=fixed;fontFamily=Helvetica;fontSize=10;spacingBottom=4;" parent="WIyWlLk6GJQsqaUBKTNV-1" vertex="1">
          <mxGeometry x="-10" y="670" width="140" height="40" as="geometry" />
        </mxCell>
        <mxCell id="iKR6BXr1hHKQpsy8EKb4-25" value="&lt;font style=&quot;font-size: 10px;&quot;&gt;Да&lt;/font&gt;" style="text;html=1;align=center;verticalAlign=middle;resizable=0;points=[];autosize=1;strokeColor=none;fillColor=none;fontFamily=Helvetica;" parent="WIyWlLk6GJQsqaUBKTNV-1" vertex="1">
          <mxGeometry x="210" y="432" width="40" height="30" as="geometry" />
        </mxCell>
        <mxCell id="iKR6BXr1hHKQpsy8EKb4-26" value="&lt;font style=&quot;font-size: 10px;&quot;&gt;Да&lt;/font&gt;" style="text;html=1;align=center;verticalAlign=middle;resizable=0;points=[];autosize=1;strokeColor=none;fillColor=none;fontFamily=Helvetica;" parent="WIyWlLk6GJQsqaUBKTNV-1" vertex="1">
          <mxGeometry x="210" y="618" width="40" height="30" as="geometry" />
        </mxCell>
        <mxCell id="iKR6BXr1hHKQpsy8EKb4-69" value="" style="edgeStyle=orthogonalEdgeStyle;rounded=0;orthogonalLoop=1;jettySize=auto;html=1;endArrow=none;endFill=0;fontFamily=Helvetica;" parent="WIyWlLk6GJQsqaUBKTNV-1" source="iKR6BXr1hHKQpsy8EKb4-28" target="iKR6BXr1hHKQpsy8EKb4-68" edge="1">
          <mxGeometry relative="1" as="geometry" />
        </mxCell>
        <mxCell id="iKR6BXr1hHKQpsy8EKb4-28" value="&lt;p style=&quot;line-height: 1&quot;&gt;a = t0 + (t2 - t0) * alpha&lt;/p&gt;" style="shape=stencil(tVTRboMwDPyavFYh2T5gYtt/pKlXotIkcrJ1/fuaGKQiBq0mQEjgu3B3Bhyh69SYCEJJb84g9LtQKmKwkBLdEdww9iK5vHBZDbVJEWxm8MegM/sWmEkZwwku7pB7CecbQJc7Vn8I+UZrulPXNnhPIi74NGLueBIzztOz8pfFevvrqIqkf4YM2IdkVKjP52V3r9sIVxvlHcsO6VfPu57wOHG11YdbTbj6v6yuCZn7uXW9N/Z0xPDtD3+G+XJta0MbkEq+Fi+htOyP5Wai6QZvQgw0dmO7PE4PRn/OmPCJd0FnGqZWA8KDN8G7yYLr7IJiPXEoKG99BbgB);whiteSpace=wrap;html=1;aspect=fixed;fontFamily=Helvetica;fontSize=10;spacingBottom=4;" parent="WIyWlLk6GJQsqaUBKTNV-1" vertex="1">
          <mxGeometry x="80" y="740" width="140" height="40" as="geometry" />
        </mxCell>
        <mxCell id="iKR6BXr1hHKQpsy8EKb4-31" value="" style="edgeStyle=orthogonalEdgeStyle;rounded=0;orthogonalLoop=1;jettySize=auto;html=1;exitX=0;exitY=0.5;exitDx=0;exitDy=0;endArrow=classic;endFill=1;fontFamily=Helvetica;" parent="WIyWlLk6GJQsqaUBKTNV-1" source="iKR6BXr1hHKQpsy8EKb4-33" target="iKR6BXr1hHKQpsy8EKb4-37" edge="1">
          <mxGeometry relative="1" as="geometry" />
        </mxCell>
        <mxCell id="iKR6BXr1hHKQpsy8EKb4-32" value="" style="edgeStyle=orthogonalEdgeStyle;rounded=0;orthogonalLoop=1;jettySize=auto;html=1;exitX=1;exitY=0.5;exitDx=0;exitDy=0;endArrow=none;endFill=0;fontFamily=Helvetica;" parent="WIyWlLk6GJQsqaUBKTNV-1" source="iKR6BXr1hHKQpsy8EKb4-33" target="iKR6BXr1hHKQpsy8EKb4-35" edge="1">
          <mxGeometry relative="1" as="geometry" />
        </mxCell>
        <mxCell id="iKR6BXr1hHKQpsy8EKb4-33" value="&lt;p style=&quot;line-height: 1&quot;&gt;second_half = true?&lt;/p&gt;" style="shape=stencil(tZTdboQgEIWfhtsGYZu9bmz7HixOK1kEA3S3ffsdAdu1/rQxakx0zuA3B0YgvPS1aIEwakQDhD8TxiqQyitr8BX1OokHmsJrCos+Fr4FGZJ4EU6Jk4aU8cHZM1xVFTJCmRqcCl2WvxD6hGO6m5fSGoMQLOkHmbs8woQy+C39TLBc/msQtchvIIDLJpNK2Ov/sQ+P+4CLnfwOsb37zf1uBx46LvZq3GbgYj2Wl6jM/dy8PAl5fnf2w1STZt6U1tJq6zBMz1iLME7ztTyZVnQbb5To0429wM8sj5P7aRrdE7Qyd4TvEyEj1jB+uTisQKwxIbX1sLCSqI8WM6ozHcTeWQd/tDYdjwtVZwfE0qMKUU2HeRRu);whiteSpace=wrap;html=1;aspect=fixed;fontFamily=Helvetica;fontSize=10;spacingBottom=4;rounded=0;shadow=0;sketch=0;spacingLeft=20;spacingRight=20;" parent="WIyWlLk6GJQsqaUBKTNV-1" vertex="1">
          <mxGeometry x="430" y="120" width="140" height="40" as="geometry" />
        </mxCell>
        <mxCell id="iKR6BXr1hHKQpsy8EKb4-34" value="" style="edgeStyle=orthogonalEdgeStyle;rounded=0;orthogonalLoop=1;jettySize=auto;html=1;endArrow=none;endFill=0;entryX=0.5;entryY=0;entryDx=0;entryDy=0;fontFamily=Helvetica;" parent="WIyWlLk6GJQsqaUBKTNV-1" source="iKR6BXr1hHKQpsy8EKb4-35" target="iKR6BXr1hHKQpsy8EKb4-40" edge="1">
          <mxGeometry relative="1" as="geometry">
            <mxPoint x="500" y="240" as="targetPoint" />
            <Array as="points">
              <mxPoint x="590" y="220" />
              <mxPoint x="500" y="220" />
            </Array>
          </mxGeometry>
        </mxCell>
        <mxCell id="iKR6BXr1hHKQpsy8EKb4-35" value="&lt;span style=&quot;font-size: 10px; font-style: normal; font-variant-ligatures: normal; font-variant-caps: normal; font-weight: 400; letter-spacing: normal; orphans: 2; text-align: center; text-indent: 0px; text-transform: none; widows: 2; word-spacing: 0px; -webkit-text-stroke-width: 0px; white-space: normal; text-decoration-thickness: initial; text-decoration-style: initial; text-decoration-color: initial; float: none; display: inline !important;&quot;&gt;b = t1 + (t2 - t1) * beta&lt;/span&gt;" style="shape=stencil(tVTRboMwDPyavFYh2T5gYtt/pKlXotIkcrJ1/fuaGKQiBq0mQEjgu3B3Bhyh69SYCEJJb84g9LtQKmKwkBLdEdww9iK5vHBZDbVJEWxm8MegM/sWmEkZwwku7pB7CecbQJc7Vn8I+UZrulPXNnhPIi74NGLueBIzztOz8pfFevvrqIqkf4YM2IdkVKjP52V3r9sIVxvlHcsO6VfPu57wOHG11YdbTbj6v6yuCZn7uXW9N/Z0xPDtD3+G+XJta0MbkEq+Fi+htOyP5Wai6QZvQgw0dmO7PE4PRn/OmPCJd0FnGqZWA8KDN8G7yYLr7IJiPXEoKG99BbgB);whiteSpace=wrap;html=1;aspect=fixed;fontFamily=Helvetica;fontSize=10;spacingBottom=4;fillColor=none;" parent="WIyWlLk6GJQsqaUBKTNV-1" vertex="1">
          <mxGeometry x="520" y="170" width="140" height="40" as="geometry" />
        </mxCell>
        <mxCell id="iKR6BXr1hHKQpsy8EKb4-36" value="" style="edgeStyle=orthogonalEdgeStyle;rounded=0;orthogonalLoop=1;jettySize=auto;html=1;exitX=0.5;exitY=1;exitDx=0;exitDy=0;fontFamily=Helvetica;" parent="WIyWlLk6GJQsqaUBKTNV-1" source="iKR6BXr1hHKQpsy8EKb4-37" edge="1">
          <mxGeometry relative="1" as="geometry">
            <mxPoint x="500" y="230" as="targetPoint" />
            <Array as="points">
              <mxPoint x="410" y="230" />
            </Array>
          </mxGeometry>
        </mxCell>
        <mxCell id="iKR6BXr1hHKQpsy8EKb4-37" value="&lt;p style=&quot;line-height: 1&quot;&gt;b = t0 + (t1 - t0) * beta&lt;/p&gt;" style="shape=stencil(tVTRboMwDPyavFYh2T5gYtt/pKlXotIkcrJ1/fuaGKQiBq0mQEjgu3B3Bhyh69SYCEJJb84g9LtQKmKwkBLdEdww9iK5vHBZDbVJEWxm8MegM/sWmEkZwwku7pB7CecbQJc7Vn8I+UZrulPXNnhPIi74NGLueBIzztOz8pfFevvrqIqkf4YM2IdkVKjP52V3r9sIVxvlHcsO6VfPu57wOHG11YdbTbj6v6yuCZn7uXW9N/Z0xPDtD3+G+XJta0MbkEq+Fi+htOyP5Wai6QZvQgw0dmO7PE4PRn/OmPCJd0FnGqZWA8KDN8G7yYLr7IJiPXEoKG99BbgB);whiteSpace=wrap;html=1;aspect=fixed;fontFamily=Helvetica;fontSize=10;spacingBottom=4;" parent="WIyWlLk6GJQsqaUBKTNV-1" vertex="1">
          <mxGeometry x="340" y="170" width="140" height="40" as="geometry" />
        </mxCell>
        <mxCell id="iKR6BXr1hHKQpsy8EKb4-38" value="&lt;font style=&quot;font-size: 10px;&quot;&gt;Да&lt;/font&gt;" style="text;html=1;align=center;verticalAlign=middle;resizable=0;points=[];autosize=1;strokeColor=none;fillColor=none;fontFamily=Helvetica;" parent="WIyWlLk6GJQsqaUBKTNV-1" vertex="1">
          <mxGeometry x="560" y="118" width="40" height="30" as="geometry" />
        </mxCell>
        <mxCell id="iKR6BXr1hHKQpsy8EKb4-42" value="" style="edgeStyle=orthogonalEdgeStyle;rounded=0;orthogonalLoop=1;jettySize=auto;html=1;endArrow=none;endFill=0;fontFamily=Helvetica;" parent="WIyWlLk6GJQsqaUBKTNV-1" source="iKR6BXr1hHKQpsy8EKb4-40" target="iKR6BXr1hHKQpsy8EKb4-41" edge="1">
          <mxGeometry relative="1" as="geometry" />
        </mxCell>
        <mxCell id="iKR6BXr1hHKQpsy8EKb4-40" value="&lt;font&gt;Упорядочить а, b по возрастанию x-координаты (в a - минимальная, в b - максимальная&lt;/font&gt;" style="shape=stencil(tVTRboMwDPyavFYh2T5gYtt/pKlXotIkcrJ1/fuaGKQiBq0mQEjgu3B3Bhyh69SYCEJJb84g9LtQKmKwkBLdEdww9iK5vHBZDbVJEWxm8MegM/sWmEkZwwku7pB7CecbQJc7Vn8I+UZrulPXNnhPIi74NGLueBIzztOz8pfFevvrqIqkf4YM2IdkVKjP52V3r9sIVxvlHcsO6VfPu57wOHG11YdbTbj6v6yuCZn7uXW9N/Z0xPDtD3+G+XJta0MbkEq+Fi+htOyP5Wai6QZvQgw0dmO7PE4PRn/OmPCJd0FnGqZWA8KDN8G7yYLr7IJiPXEoKG99BbgB);whiteSpace=wrap;html=1;aspect=fixed;fontFamily=Helvetica;fontSize=10;spacingBottom=4;" parent="WIyWlLk6GJQsqaUBKTNV-1" vertex="1">
          <mxGeometry x="413" y="240" width="175" height="50" as="geometry" />
        </mxCell>
        <mxCell id="iKR6BXr1hHKQpsy8EKb4-45" value="" style="edgeStyle=orthogonalEdgeStyle;rounded=0;orthogonalLoop=1;jettySize=auto;html=1;endArrow=none;endFill=0;fontFamily=Helvetica;" parent="WIyWlLk6GJQsqaUBKTNV-1" source="iKR6BXr1hHKQpsy8EKb4-41" target="iKR6BXr1hHKQpsy8EKb4-44" edge="1">
          <mxGeometry relative="1" as="geometry" />
        </mxCell>
        <mxCell id="iKR6BXr1hHKQpsy8EKb4-41" value="&lt;p style=&quot;line-height: 1&quot;&gt;&lt;font&gt;Цикл по j от a.x до b.x+1&lt;/font&gt;&lt;/p&gt;" style="strokeWidth=1;html=1;shape=stencil(rVXBUoMwFPyaXJmQ1EOPivXoxYPnlD5LpiEvE7C1f2/gwQgCbU1lmIG3C7t5ZBOYzKpCOWCCW1UCk89MCIPonmCvbbgPREHoilN5ojLta1U5yGsCj8prtTVATFV7PMBJ7+pOQtsCvK4bVm4YfwzPNKfMcrQ2iGi01YgZ8EFMaRve5V8kxpMHsjl3NVUuOJRQgx+hP829EsDES7RTepvTW4TTuKPe95rT+9+d0jinTczX478mKknXN85VRGM8WUfbLXQns4AsRVRmW5Uf9h4/7W52kB/amBwN+lDStTVjQvLuuNykU83ymRA9XeIRBtM6uybmpXsFo+1QQdwv0W8N5/Gg7tFYRYzjvxWi+oj4mrnBCi4kIuCTULToQhJDBtHDlYjSZr2U/olAi9KvowW+AQ==);whiteSpace=wrap;fontSize=10;fontFamily=Helvetica;spacingLeft=10;spacingRight=10;spacingBottom=4;aspect=fixed;" parent="WIyWlLk6GJQsqaUBKTNV-1" vertex="1">
          <mxGeometry x="430.5" y="310" width="140" height="40" as="geometry" />
        </mxCell>
        <mxCell id="iKR6BXr1hHKQpsy8EKb4-47" value="" style="edgeStyle=orthogonalEdgeStyle;rounded=0;orthogonalLoop=1;jettySize=auto;html=1;exitX=1;exitY=0.5;exitDx=0;exitDy=0;endArrow=none;endFill=0;fontFamily=Helvetica;" parent="WIyWlLk6GJQsqaUBKTNV-1" source="iKR6BXr1hHKQpsy8EKb4-44" target="iKR6BXr1hHKQpsy8EKb4-46" edge="1">
          <mxGeometry relative="1" as="geometry" />
        </mxCell>
        <mxCell id="iKR6BXr1hHKQpsy8EKb4-50" value="" style="edgeStyle=orthogonalEdgeStyle;rounded=0;orthogonalLoop=1;jettySize=auto;html=1;exitX=0;exitY=0.5;exitDx=0;exitDy=0;fontFamily=Helvetica;" parent="WIyWlLk6GJQsqaUBKTNV-1" source="iKR6BXr1hHKQpsy8EKb4-44" target="iKR6BXr1hHKQpsy8EKb4-48" edge="1">
          <mxGeometry relative="1" as="geometry">
            <Array as="points">
              <mxPoint x="410" y="390" />
            </Array>
          </mxGeometry>
        </mxCell>
        <mxCell id="iKR6BXr1hHKQpsy8EKb4-44" value="&lt;p style=&quot;line-height: 1&quot;&gt;&lt;font&gt;a.x = b.x&lt;/font&gt;&lt;/p&gt;" style="shape=stencil(tZTdboQgEIWfhtsGYZu9bmz7HixOK1kEA3S3ffsdAdu1/rQxakx0zuA3B0YgvPS1aIEwakQDhD8TxiqQyitr8BX1OokHmsJrCos+Fr4FGZJ4EU6Jk4aU8cHZM1xVFTJCmRqcCl2WvxD6hGO6m5fSGoMQLOkHmbs8woQy+C39TLBc/msQtchvIIDLJpNK2Ov/sQ+P+4CLnfwOsb37zf1uBx46LvZq3GbgYj2Wl6jM/dy8PAl5fnf2w1STZt6U1tJq6zBMz1iLME7ztTyZVnQbb5To0429wM8sj5P7aRrdE7Qyd4TvEyEj1jB+uTisQKwxIbX1sLCSqI8WM6ozHcTeWQd/tDYdjwtVZwfE0qMKUU2HeRRu);whiteSpace=wrap;html=1;aspect=fixed;fontFamily=Helvetica;fontSize=10;spacingBottom=4;rounded=0;shadow=0;sketch=0;spacingLeft=20;spacingRight=20;" parent="WIyWlLk6GJQsqaUBKTNV-1" vertex="1">
          <mxGeometry x="430" y="370" width="140" height="40" as="geometry" />
        </mxCell>
        <mxCell id="iKR6BXr1hHKQpsy8EKb4-52" value="" style="edgeStyle=orthogonalEdgeStyle;rounded=0;orthogonalLoop=1;jettySize=auto;html=1;endArrow=none;endFill=0;fontFamily=Helvetica;" parent="WIyWlLk6GJQsqaUBKTNV-1" source="iKR6BXr1hHKQpsy8EKb4-46" target="iKR6BXr1hHKQpsy8EKb4-51" edge="1">
          <mxGeometry relative="1" as="geometry">
            <Array as="points">
              <mxPoint x="590" y="460" />
              <mxPoint x="500" y="460" />
            </Array>
          </mxGeometry>
        </mxCell>
        <mxCell id="iKR6BXr1hHKQpsy8EKb4-46" value="&lt;p style=&quot;line-height: 1&quot;&gt;phi = 1&lt;/p&gt;" style="shape=stencil(tVTRboMwDPyavFYh2T5gYtt/pKlXotIkcrJ1/fuaGKQiBq0mQEjgu3B3Bhyh69SYCEJJb84g9LtQKmKwkBLdEdww9iK5vHBZDbVJEWxm8MegM/sWmEkZwwku7pB7CecbQJc7Vn8I+UZrulPXNnhPIi74NGLueBIzztOz8pfFevvrqIqkf4YM2IdkVKjP52V3r9sIVxvlHcsO6VfPu57wOHG11YdbTbj6v6yuCZn7uXW9N/Z0xPDtD3+G+XJta0MbkEq+Fi+htOyP5Wai6QZvQgw0dmO7PE4PRn/OmPCJd0FnGqZWA8KDN8G7yYLr7IJiPXEoKG99BbgB);whiteSpace=wrap;html=1;aspect=fixed;fontFamily=Helvetica;fontSize=10;spacingBottom=4;" parent="WIyWlLk6GJQsqaUBKTNV-1" vertex="1">
          <mxGeometry x="520" y="410" width="140" height="40" as="geometry" />
        </mxCell>
        <mxCell id="iKR6BXr1hHKQpsy8EKb4-53" value="" style="edgeStyle=orthogonalEdgeStyle;rounded=0;orthogonalLoop=1;jettySize=auto;html=1;exitX=0.5;exitY=1;exitDx=0;exitDy=0;fontFamily=Helvetica;" parent="WIyWlLk6GJQsqaUBKTNV-1" source="iKR6BXr1hHKQpsy8EKb4-48" edge="1">
          <mxGeometry relative="1" as="geometry">
            <mxPoint x="500" y="470" as="targetPoint" />
            <Array as="points">
              <mxPoint x="410" y="470" />
            </Array>
          </mxGeometry>
        </mxCell>
        <mxCell id="iKR6BXr1hHKQpsy8EKb4-48" value="&lt;p style=&quot;line-height: 1&quot;&gt;(j - a.x)/(b.x-a.x)&lt;/p&gt;" style="shape=stencil(tVTRboMwDPyavFYh2T5gYtt/pKlXotIkcrJ1/fuaGKQiBq0mQEjgu3B3Bhyh69SYCEJJb84g9LtQKmKwkBLdEdww9iK5vHBZDbVJEWxm8MegM/sWmEkZwwku7pB7CecbQJc7Vn8I+UZrulPXNnhPIi74NGLueBIzztOz8pfFevvrqIqkf4YM2IdkVKjP52V3r9sIVxvlHcsO6VfPu57wOHG11YdbTbj6v6yuCZn7uXW9N/Z0xPDtD3+G+XJta0MbkEq+Fi+htOyP5Wai6QZvQgw0dmO7PE4PRn/OmPCJd0FnGqZWA8KDN8G7yYLr7IJiPXEoKG99BbgB);whiteSpace=wrap;html=1;aspect=fixed;fontFamily=Helvetica;fontSize=10;spacingBottom=4;" parent="WIyWlLk6GJQsqaUBKTNV-1" vertex="1">
          <mxGeometry x="340" y="410" width="140" height="40" as="geometry" />
        </mxCell>
        <mxCell id="iKR6BXr1hHKQpsy8EKb4-56" value="" style="edgeStyle=orthogonalEdgeStyle;rounded=0;orthogonalLoop=1;jettySize=auto;html=1;endArrow=none;endFill=0;fontFamily=Helvetica;" parent="WIyWlLk6GJQsqaUBKTNV-1" source="iKR6BXr1hHKQpsy8EKb4-51" target="iKR6BXr1hHKQpsy8EKb4-54" edge="1">
          <mxGeometry relative="1" as="geometry" />
        </mxCell>
        <mxCell id="iKR6BXr1hHKQpsy8EKb4-51" value="&lt;p style=&quot;line-height: 1&quot;&gt;p = a + (b-a) * phi&lt;/p&gt;" style="shape=stencil(tVTRboMwDPyavFYh2T5gYtt/pKlXotIkcrJ1/fuaGKQiBq0mQEjgu3B3Bhyh69SYCEJJb84g9LtQKmKwkBLdEdww9iK5vHBZDbVJEWxm8MegM/sWmEkZwwku7pB7CecbQJc7Vn8I+UZrulPXNnhPIi74NGLueBIzztOz8pfFevvrqIqkf4YM2IdkVKjP52V3r9sIVxvlHcsO6VfPu57wOHG11YdbTbj6v6yuCZn7uXW9N/Z0xPDtD3+G+XJta0MbkEq+Fi+htOyP5Wai6QZvQgw0dmO7PE4PRn/OmPCJd0FnGqZWA8KDN8G7yYLr7IJiPXEoKG99BbgB);whiteSpace=wrap;html=1;aspect=fixed;fontFamily=Helvetica;fontSize=10;spacingBottom=4;" parent="WIyWlLk6GJQsqaUBKTNV-1" vertex="1">
          <mxGeometry x="430" y="480" width="140" height="40" as="geometry" />
        </mxCell>
        <mxCell id="iKR6BXr1hHKQpsy8EKb4-58" value="" style="edgeStyle=orthogonalEdgeStyle;rounded=0;orthogonalLoop=1;jettySize=auto;html=1;endArrow=none;endFill=0;fontFamily=Helvetica;" parent="WIyWlLk6GJQsqaUBKTNV-1" source="iKR6BXr1hHKQpsy8EKb4-54" target="iKR6BXr1hHKQpsy8EKb4-57" edge="1">
          <mxGeometry relative="1" as="geometry" />
        </mxCell>
        <mxCell id="iKR6BXr1hHKQpsy8EKb4-54" value="&lt;p style=&quot;line-height: 1&quot;&gt;idx = p.x + p.y * buffer.size_x&lt;/p&gt;" style="shape=stencil(tVTRboMwDPyavFYh2T5gYtt/pKlXotIkcrJ1/fuaGKQiBq0mQEjgu3B3Bhyh69SYCEJJb84g9LtQKmKwkBLdEdww9iK5vHBZDbVJEWxm8MegM/sWmEkZwwku7pB7CecbQJc7Vn8I+UZrulPXNnhPIi74NGLueBIzztOz8pfFevvrqIqkf4YM2IdkVKjP52V3r9sIVxvlHcsO6VfPu57wOHG11YdbTbj6v6yuCZn7uXW9N/Z0xPDtD3+G+XJta0MbkEq+Fi+htOyP5Wai6QZvQgw0dmO7PE4PRn/OmPCJd0FnGqZWA8KDN8G7yYLr7IJiPXEoKG99BbgB);whiteSpace=wrap;html=1;aspect=fixed;fontFamily=Helvetica;fontSize=10;spacingBottom=4;" parent="WIyWlLk6GJQsqaUBKTNV-1" vertex="1">
          <mxGeometry x="430" y="540" width="140" height="40" as="geometry" />
        </mxCell>
        <mxCell id="iKR6BXr1hHKQpsy8EKb4-55" value="&lt;p style=&quot;line-height: 100%; font-size: 10px;&quot;&gt;buffer.size_x - ширина &lt;br&gt;буфера кадра&lt;/p&gt;" style="strokeWidth=1;html=1;shape=stencil(rZXNcoMgFIWfhm2HiH2ADk2X3XTRNdHbyiSAAzRp377I1YnUnxjtTBbcc835uAdGCeOuEjWQjGqhgLBnkmWFUQq0D6sgV6jlFMtLWgpXQ+FROwsrxeEE2HHemiNcZOlbB6krsDK6sj2hT+GZ5sd4YbQOJtJol3R6/WAmZLMj+o1m9OERMT9tjVUdCAo82ES9TvaKAsleVpN2y0hvK0jpRB33Fun9ftJuHWm/mbTwlDaDlh7SBIjxoExdS8YPojh+WvOly9Ht1aK58oNG11bmDNd953QsofHJO4eT1D0Hxv7ZIV9h8WeMeYsY7yClqE5Ey/iHsTCTOb5tZoh3HUo6zLJIS+EqKMO6XfTv4YbDmIePJ3kzlPi3QaJRxa9BFH4B);align=left;labelPosition=right;pointerEvents=1;gradientColor=#ffffff;spacing=0;fontSize=10;shadow=0;spacingBottom=1;fontFamily=Helvetica;" parent="WIyWlLk6GJQsqaUBKTNV-1" vertex="1">
          <mxGeometry x="570" y="540" width="40" height="40" as="geometry" />
        </mxCell>
        <mxCell id="iKR6BXr1hHKQpsy8EKb4-60" value="" style="edgeStyle=orthogonalEdgeStyle;rounded=0;orthogonalLoop=1;jettySize=auto;html=1;exitX=1;exitY=0.5;exitDx=0;exitDy=0;entryX=0.5;entryY=0;entryDx=0;entryDy=0;endArrow=none;endFill=0;fontFamily=Helvetica;" parent="WIyWlLk6GJQsqaUBKTNV-1" source="iKR6BXr1hHKQpsy8EKb4-57" target="iKR6BXr1hHKQpsy8EKb4-59" edge="1">
          <mxGeometry relative="1" as="geometry" />
        </mxCell>
        <mxCell id="iKR6BXr1hHKQpsy8EKb4-57" value="&lt;p style=&quot;line-height: 1&quot;&gt;idx &amp;gt;=0 и &lt;br&gt;idx &amp;lt; z_buffer.size и z_buffer[idx] &amp;lt; p.z&lt;/p&gt;" style="shape=stencil(tZTdboQgEIWfhtsGYZu9bmz7HixOK1kEA3S3ffsdAdu1/rQxakx0zuA3B0YgvPS1aIEwakQDhD8TxiqQyitr8BX1OokHmsJrCos+Fr4FGZJ4EU6Jk4aU8cHZM1xVFTJCmRqcCl2WvxD6hGO6m5fSGoMQLOkHmbs8woQy+C39TLBc/msQtchvIIDLJpNK2Ov/sQ+P+4CLnfwOsb37zf1uBx46LvZq3GbgYj2Wl6jM/dy8PAl5fnf2w1STZt6U1tJq6zBMz1iLME7ztTyZVnQbb5To0429wM8sj5P7aRrdE7Qyd4TvEyEj1jB+uTisQKwxIbX1sLCSqI8WM6ozHcTeWQd/tDYdjwtVZwfE0qMKUU2HeRRu);whiteSpace=wrap;html=1;aspect=fixed;fontFamily=Helvetica;fontSize=10;spacingBottom=4;rounded=0;shadow=0;sketch=0;spacingLeft=20;spacingRight=20;" parent="WIyWlLk6GJQsqaUBKTNV-1" vertex="1">
          <mxGeometry x="413" y="600" width="175" height="50" as="geometry" />
        </mxCell>
        <mxCell id="iKR6BXr1hHKQpsy8EKb4-63" value="" style="edgeStyle=orthogonalEdgeStyle;rounded=0;orthogonalLoop=1;jettySize=auto;html=1;endArrow=none;endFill=0;fontFamily=Helvetica;" parent="WIyWlLk6GJQsqaUBKTNV-1" source="iKR6BXr1hHKQpsy8EKb4-59" target="iKR6BXr1hHKQpsy8EKb4-61" edge="1">
          <mxGeometry relative="1" as="geometry" />
        </mxCell>
        <mxCell id="iKR6BXr1hHKQpsy8EKb4-59" value="&lt;p style=&quot;line-height: 1&quot;&gt;z_buffer[idx]&amp;nbsp; = p.z&lt;/p&gt;" style="shape=stencil(tVTRboMwDPyavFYh2T5gYtt/pKlXotIkcrJ1/fuaGKQiBq0mQEjgu3B3Bhyh69SYCEJJb84g9LtQKmKwkBLdEdww9iK5vHBZDbVJEWxm8MegM/sWmEkZwwku7pB7CecbQJc7Vn8I+UZrulPXNnhPIi74NGLueBIzztOz8pfFevvrqIqkf4YM2IdkVKjP52V3r9sIVxvlHcsO6VfPu57wOHG11YdbTbj6v6yuCZn7uXW9N/Z0xPDtD3+G+XJta0MbkEq+Fi+htOyP5Wai6QZvQgw0dmO7PE4PRn/OmPCJd0FnGqZWA8KDN8G7yYLr7IJiPXEoKG99BbgB);whiteSpace=wrap;html=1;aspect=fixed;fontFamily=Helvetica;fontSize=10;spacingBottom=4;" parent="WIyWlLk6GJQsqaUBKTNV-1" vertex="1">
          <mxGeometry x="530" y="650" width="140" height="40" as="geometry" />
        </mxCell>
        <mxCell id="iKR6BXr1hHKQpsy8EKb4-65" value="" style="edgeStyle=orthogonalEdgeStyle;rounded=0;orthogonalLoop=1;jettySize=auto;html=1;endArrow=none;endFill=0;fontFamily=Helvetica;" parent="WIyWlLk6GJQsqaUBKTNV-1" source="iKR6BXr1hHKQpsy8EKb4-61" target="iKR6BXr1hHKQpsy8EKb4-64" edge="1">
          <mxGeometry relative="1" as="geometry">
            <Array as="points">
              <mxPoint x="600" y="760" />
              <mxPoint x="501" y="760" />
            </Array>
          </mxGeometry>
        </mxCell>
        <mxCell id="iKR6BXr1hHKQpsy8EKb4-61" value="&lt;p style=&quot;line-height: 1&quot;&gt;buffer[idx]&amp;nbsp; = color&lt;/p&gt;" style="shape=stencil(tVTRboMwDPyavFYh2T5gYtt/pKlXotIkcrJ1/fuaGKQiBq0mQEjgu3B3Bhyh69SYCEJJb84g9LtQKmKwkBLdEdww9iK5vHBZDbVJEWxm8MegM/sWmEkZwwku7pB7CecbQJc7Vn8I+UZrulPXNnhPIi74NGLueBIzztOz8pfFevvrqIqkf4YM2IdkVKjP52V3r9sIVxvlHcsO6VfPu57wOHG11YdbTbj6v6yuCZn7uXW9N/Z0xPDtD3+G+XJta0MbkEq+Fi+htOyP5Wai6QZvQgw0dmO7PE4PRn/OmPCJd0FnGqZWA8KDN8G7yYLr7IJiPXEoKG99BbgB);whiteSpace=wrap;html=1;aspect=fixed;fontFamily=Helvetica;fontSize=10;spacingBottom=4;" parent="WIyWlLk6GJQsqaUBKTNV-1" vertex="1">
          <mxGeometry x="530" y="710" width="140" height="40" as="geometry" />
        </mxCell>
        <mxCell id="iKR6BXr1hHKQpsy8EKb4-64" value="Конец" style="shape=stencil(vZVhboMwDIVPk59MgbADTGy7h0tdiBoSFLJCb7+QgNZAYesGQwj07PD5mRhBWNaUUCNJqIQKCXslSYLyaK82VHqdUi9bL+NRQ1NjbnzwAprDQaDPNEarM7b8aAYElyVqbvoseyP0xa7pT5blSkoL4Uo2QeYmb2HApX2Wdh42lL8Gqrb8Cg3qwaSPkuT959in533A8U5+Q+zofnO/24FDx/FeG7cZOP49lmU2sjTcLDtAfi60+rBf2j0zJy5EroTSVvq7q0USRodjvZka+g9vlhjTlbrgV5eTbUlX2SMCdL5IGJSeZPU11AJ0gZEFRScBRfA2mxaxnoe7CDreRFoZ6F9qUG3druDypuP4vuEHOp4S0j/0TP+l54d22U3vbIhcdGFy7cwqjd+MtP8trFRdXOBKzyq4qP9/ucAn);whiteSpace=wrap;html=1;aspect=fixed;fontFamily=Helvetica;fontSize=10;spacingBottom=4;" parent="WIyWlLk6GJQsqaUBKTNV-1" vertex="1">
          <mxGeometry x="430.5" y="780" width="140" height="40" as="geometry" />
        </mxCell>
        <mxCell id="iKR6BXr1hHKQpsy8EKb4-66" value="" style="endArrow=classic;html=1;rounded=0;exitX=0;exitY=0.5;exitDx=0;exitDy=0;fontFamily=Helvetica;" parent="WIyWlLk6GJQsqaUBKTNV-1" source="iKR6BXr1hHKQpsy8EKb4-57" edge="1">
          <mxGeometry width="50" height="50" relative="1" as="geometry">
            <mxPoint x="410" y="640" as="sourcePoint" />
            <mxPoint x="500" y="770" as="targetPoint" />
            <Array as="points">
              <mxPoint x="390" y="625" />
              <mxPoint x="390" y="770" />
            </Array>
          </mxGeometry>
        </mxCell>
        <mxCell id="iKR6BXr1hHKQpsy8EKb4-68" value="&lt;font style=&quot;font-size: 10px;&quot;&gt;A&lt;/font&gt;" style="ellipse;whiteSpace=wrap;html=1;aspect=fixed;fillColor=none;fontFamily=Helvetica;" parent="WIyWlLk6GJQsqaUBKTNV-1" vertex="1">
          <mxGeometry x="135.25" y="800" width="30" height="30" as="geometry" />
        </mxCell>
        <mxCell id="iKR6BXr1hHKQpsy8EKb4-71" value="" style="edgeStyle=orthogonalEdgeStyle;rounded=0;orthogonalLoop=1;jettySize=auto;html=1;entryX=0.5;entryY=0;entryDx=0;entryDy=0;endArrow=none;endFill=0;fontFamily=Helvetica;" parent="WIyWlLk6GJQsqaUBKTNV-1" source="iKR6BXr1hHKQpsy8EKb4-70" target="iKR6BXr1hHKQpsy8EKb4-33" edge="1">
          <mxGeometry relative="1" as="geometry" />
        </mxCell>
        <mxCell id="iKR6BXr1hHKQpsy8EKb4-70" value="&lt;font style=&quot;font-size: 10px;&quot;&gt;A&lt;/font&gt;" style="ellipse;whiteSpace=wrap;html=1;aspect=fixed;fillColor=none;fontFamily=Helvetica;" parent="WIyWlLk6GJQsqaUBKTNV-1" vertex="1">
          <mxGeometry x="485.5" y="70" width="30" height="30" as="geometry" />
        </mxCell>
      </root>
    </mxGraphModel>
  </diagram>
</mxfile>
